<svg width="24" height="25" viewBox="0 0 24 25" fill="none" xmlns="http://www.w3.org/2000/svg">
<path fill-rule="evenodd" clip-rule="evenodd" d="M7.5 3.5H16.504C18.987 3.5 21 5.513 21 7.996V17.005C21 19.487 18.987 21.5 16.504 21.5H7.496C5.013 21.5 3 19.487 3 17.004V8C3 5.515 5.015 3.5 7.5 3.5V3.5Z" stroke="#F8F9FA" stroke-width="2" stroke-linecap="round" stroke-linejoin="round"/>
<path d="M8.12012 11.5996V16.9996" stroke="#F8F9FA" stroke-width="2" stroke-linecap="round" stroke-linejoin="round"/>
<path d="M11.7192 17.0006V13.8506C11.7192 12.6076 12.7262 11.6006 13.9692 11.6006V11.6006C15.2122 11.6006 16.2192 12.6076 16.2192 13.8506V17.0006" stroke="#F8F9FA" stroke-width="2" stroke-linecap="round" stroke-linejoin="round"/>
<path d="M8.11814 8.33848C7.99414 8.33848 7.89314 8.43948 7.89414 8.56348C7.89414 8.68748 7.99514 8.78848 8.11914 8.78848C8.24314 8.78848 8.34414 8.68748 8.34414 8.56348C8.34414 8.43848 8.24314 8.33848 8.11814 8.33848" stroke="#F8F9FA" stroke-width="2" stroke-linecap="round" stroke-linejoin="round"/>
</svg>
